<?xml version="1.0" standalone="no"?>
<!DOCTYPE svg PUBLIC "-//W3C//DTD SVG 20010904//EN"
 "http://www.w3.org/TR/2001/REC-SVG-20010904/DTD/svg10.dtd">
<svg version="1.0" xmlns="http://www.w3.org/2000/svg"
 width="388.000000pt" height="186.000000pt" viewBox="0 0 388.000000 186.000000"
 preserveAspectRatio="xMidYMid meet">

<g transform="translate(0.000000,186.000000) scale(0.100000,-0.100000)"
fill="#000000" stroke="none">
<path d="M230 1286 c0 -8 5 -18 10 -21 6 -3 10 -28 10 -55 0 -27 5 -52 10 -55
6 -3 10 -17 10 -30 0 -13 5 -27 10 -30 6 -3 10 -17 10 -31 0 -13 5 -24 10 -24
6 0 10 -5 10 -11 0 -32 119 -169 147 -169 7 0 13 -4 13 -8 0 -5 21 -19 48 -32
26 -12 55 -26 64 -31 10 -5 27 -9 37 -9 11 0 23 -4 26 -10 3 -5 17 -10 30 -10
13 0 27 -4 30 -10 3 -5 21 -10 40 -10 19 0 37 -4 40 -10 3 -5 19 -10 36 -10
16 0 29 -4 29 -10 0 -5 15 -10 34 -10 19 0 38 -4 41 -10 3 -5 17 -10 30 -10
13 0 27 -4 30 -10 3 -5 17 -10 30 -10 13 0 27 -5 30 -10 3 -5 15 -10 26 -10
10 0 19 -4 19 -10 0 -5 9 -10 20 -10 11 0 20 -4 20 -10 0 -5 6 -10 13 -10 7 0
23 -9 35 -20 12 -11 25 -20 30 -20 4 0 29 -21 55 -47 32 -32 47 -41 47 -30 0
9 -4 17 -10 17 -5 0 -10 13 -10 29 0 17 -4 33 -10 36 -5 3 -10 15 -10 26 0 10
-5 29 -12 42 -6 12 -15 30 -20 40 -16 34 -33 61 -50 81 -10 11 -18 24 -18 29
0 14 -111 117 -126 117 -8 0 -14 4 -14 9 0 7 -101 60 -157 82 -48 19 -79 32
-95 40 -10 5 -25 9 -33 9 -8 0 -24 5 -35 10 -11 6 -29 15 -40 20 -11 6 -29 10
-40 10 -10 0 -35 9 -55 20 -20 11 -41 20 -48 20 -18 0 -177 82 -177 91 0 5 -6
9 -14 9 -7 0 -33 18 -56 40 -47 45 -50 46 -50 26z"/>
<path d="M70 838 c0 -57 51 -184 107 -270 108 -165 252 -232 553 -257 348 -29
435 -49 548 -124 69 -46 67 -27 -6 93 -65 106 -170 194 -282 238 -55 21 -152
48 -265 72 -33 7 -85 19 -115 27 -30 8 -71 19 -90 24 -113 28 -270 100 -377
171 -68 46 -73 47 -73 26z"/>
</g>
</svg>
