<?xml version="1.0" encoding="utf-8"?>
<!-- Generator: Adobe Illustrator 19.2.1, SVG Export Plug-In . SVG Version: 6.00 Build 0)  -->
<svg version="1.1" id="Layer_1" xmlns="http://www.w3.org/2000/svg" xmlns:xlink="http://www.w3.org/1999/xlink" x="0px" y="0px"
	 viewBox="0 0 1400 980" style="enable-background:new 0 0 1400 980;" xml:space="preserve">
<style type="text/css">
	.st0{fill:#EDE7DB;}
	.st1{fill:#CFCFCF;}
	.st2{fill:#BABABA;}
	.st3{fill:#C02734;}
	.st4{fill:#FFFFFF;}
	.st5{font-family:'Lato-Black';}
	.st6{font-size:51.025px;}
	.st7{font-family:'Lato-Semibold';}
	.st8{font-size:23.7447px;}
	.st9{font-size:45.0485px;}
	.st10{font-size:22.8952px;}
	.st11{fill:#529293;}
	.st12{font-size:37.373px;}
	.st13{font-size:27.2283px;}
	.st14{fill:#3B6A6B;}
	.st15{font-size:13.3142px;}
	.st16{fill:#821B25;}
	.st17{font-size:44.6289px;}
	.st18{font-size:46.3526px;}
	.st19{fill:#FCBF1E;}
	.st20{fill:#D98D1A;}
	.st21{font-size:45.9801px;}
	.st22{font-size:77.2848px;}
	.st23{font-size:20.9627px;}
	.st24{font-size:50.3458px;}
	.st25{font-family:'Lato-Bold';}
	.st26{font-size:23.3135px;}
	.st27{fill:none;stroke:#FFFFFF;stroke-width:3;stroke-miterlimit:10;}
	.st28{font-size:39.9123px;}
	.st29{font-size:52.2045px;}
	.st30{font-size:32.8613px;}
	.st31{font-size:24.8192px;}
	.st32{font-size:12.7485px;}
	.st33{font-size:37.707px;}
	.st34{font-size:63.3791px;}
	.st35{font-size:17.1909px;}
	.st36{font-size:41.2872px;}
	.st37{opacity:0.57;}
	.st38{fill:#D43737;}
	.st39{fill:#A62B2B;}
	.st40{fill:#CF3535;}
	.st41{fill:#F74545;}
	.st42{fill:#FF8724;}
	.st43{fill:#BA5C0F;}
	.st44{fill:#D98138;}
	.st45{fill:#D96B11;}
	.st46{fill:#FFA55C;}
	.st47{fill:#77AC26;}
	.st48{fill:#638E18;}
	.st49{fill:#8EC543;}
	.st50{fill:#0C4588;}
	.st51{fill:#1161BF;}
	.st52{fill:#1371E3;}
	.st53{fill:none;stroke:#FFFFFF;stroke-width:2;stroke-miterlimit:10;}
</style>
<rect class="st1" width="1400" height="980"/>
<g>
	<g>
		<path class="st2" d="M1215.9,375.7v-3.9H902.6c0,15.3-12.4,27.7-27.7,27.7c-15.3,0-27.7-12.4-27.7-27.7H742.4v3.9
			c4.1,1.4,7,5.3,7,9.8c0,4.5-2.9,8.4-7,9.8v2.8c4.1,1.4,7,5.3,7,9.8s-2.9,8.4-7,9.8v3.1c4.2,1.3,7.3,5.3,7.3,10
			c0,4.7-3.1,8.6-7.3,10v2.5c4.2,1.3,7.3,5.3,7.3,10c0,4.7-3.1,8.6-7.3,10v2.8c4.2,1.3,7.3,5.3,7.3,10c0,4.7-3.1,8.6-7.3,10v2.5
			c4.2,1.3,7.3,5.3,7.3,10c0,4.7-3.1,8.6-7.3,10v3c4.2,1.3,7.3,5.3,7.3,10s-3.1,8.6-7.3,10v2.5c4.2,1.3,7.3,5.3,7.3,10
			s-3.1,8.6-7.3,10v3c4.2,1.3,7.3,5.3,7.3,10s-3.1,8.6-7.3,10v2.5c4.2,1.3,7.3,5.3,7.3,10s-3.1,8.6-7.3,10v3.8h104.8
			c0-15.3,12.4-27.7,27.7-27.7c15.3,0,27.7,12.4,27.7,27.7h313.3v-3.8c-4.2-1.3-7.3-5.3-7.3-10s3.1-8.6,7.3-10V577
			c-4.2-1.3-7.3-5.3-7.3-10s3.1-8.6,7.3-10v-3c-4.2-1.3-7.3-5.3-7.3-10s3.1-8.6,7.3-10v-2.5c-4.2-1.3-7.3-5.3-7.3-10s3.1-8.6,7.3-10
			v-3c-4.2-1.3-7.3-5.3-7.3-10c0-4.7,3.1-8.6,7.3-10v-2.5c-4.2-1.3-7.3-5.3-7.3-10c0-4.7,3.1-8.6,7.3-10v-2.8
			c-4.2-1.3-7.3-5.3-7.3-10c0-4.7,3.1-8.6,7.3-10V441c-4.2-1.3-7.3-5.3-7.3-10c0-4.7,3.1-8.6,7.3-10v-3.1c-4.1-1.4-7-5.3-7-9.8
			s2.9-8.4,7-9.8v-2.8c-4.1-1.4-7-5.3-7-9.8C1208.9,381,1211.8,377.2,1215.9,375.7z"/>
		<g>
			<path class="st3" d="M1215.9,361.9V358H902.6c0,15.3-12.4,27.7-27.7,27.7c-15.3,0-27.7-12.4-27.7-27.7H742.4v3.9
				c4.1,1.4,7,5.3,7,9.8c0,4.5-2.9,8.4-7,9.8v2.8c4.1,1.4,7,5.3,7,9.8s-2.9,8.4-7,9.8v3.1c4.2,1.3,7.3,5.3,7.3,10
				c0,4.7-3.1,8.6-7.3,10v2.5c4.2,1.3,7.3,5.3,7.3,10c0,4.7-3.1,8.6-7.3,10v2.8c4.2,1.3,7.3,5.3,7.3,10c0,4.7-3.1,8.6-7.3,10v2.5
				c4.2,1.3,7.3,5.3,7.3,10c0,4.7-3.1,8.6-7.3,10v3c4.2,1.3,7.3,5.3,7.3,10s-3.1,8.6-7.3,10v2.5c4.2,1.3,7.3,5.3,7.3,10
				c0,4.7-3.1,8.6-7.3,10v3c4.2,1.3,7.3,5.3,7.3,10c0,4.7-3.1,8.6-7.3,10v2.5c4.2,1.3,7.3,5.3,7.3,10c0,4.7-3.1,8.6-7.3,10v3.8
				h104.8c0-15.3,12.4-27.7,27.7-27.7c15.3,0,27.7,12.4,27.7,27.7h313.3v-3.8c-4.2-1.3-7.3-5.3-7.3-10c0-4.7,3.1-8.6,7.3-10v-2.5
				c-4.2-1.3-7.3-5.3-7.3-10c0-4.7,3.1-8.6,7.3-10v-3c-4.2-1.3-7.3-5.3-7.3-10c0-4.7,3.1-8.6,7.3-10v-2.5c-4.2-1.3-7.3-5.3-7.3-10
				s3.1-8.6,7.3-10v-3c-4.2-1.3-7.3-5.3-7.3-10c0-4.7,3.1-8.6,7.3-10v-2.5c-4.2-1.3-7.3-5.3-7.3-10c0-4.7,3.1-8.6,7.3-10v-2.8
				c-4.2-1.3-7.3-5.3-7.3-10c0-4.7,3.1-8.6,7.3-10v-2.5c-4.2-1.3-7.3-5.3-7.3-10c0-4.7,3.1-8.6,7.3-10v-3.1c-4.1-1.4-7-5.3-7-9.8
				s2.9-8.4,7-9.8v-2.8c-4.1-1.4-7-5.3-7-9.8C1208.9,367.2,1211.8,363.3,1215.9,361.9z"/>
			<path class="st4" d="M852.3,398.5c-9.8-5.5-18-13.5-23.8-23.2h-62.3v196.7h62.3c5.8-9.6,14-17.6,23.8-23.2V398.5z"/>
			<g>
				<path class="st4" d="M1188.2,568.3H918.3c-0.7,0-1.2-0.5-1.2-1.2V380.3c0-0.7,0.5-1.2,1.2-1.2h269.9c0.7,0,1.2,0.5,1.2,1.2
					v186.7C1189.4,567.7,1188.9,568.3,1188.2,568.3z M919.5,565.9H1187V381.5H919.5V565.9z"/>
			</g>
			<g>
				<g>
					<g>
						<text transform="matrix(1 0 0 1 941.0027 484.1352)" class="st4 st5 st6">COUPON</text>
						<text transform="matrix(1 0 0 1 941.0027 511.9633)" class="st4 st7 st8">MARKET DISCOUNT</text>
					</g>
					<g>
						<g>
							<path class="st4" d="M941,524.3c-0.5,0-0.9-0.2-1.3-0.5c-0.3-0.3-0.5-0.8-0.5-1.3c0-0.5,0.2-0.9,0.5-1.3
								c0.5-0.5,1.3-0.7,2-0.4c0.2,0.1,0.4,0.2,0.6,0.4c0.3,0.3,0.5,0.8,0.5,1.3c0,0.5-0.2,1-0.5,1.3c-0.2,0.2-0.4,0.3-0.6,0.4
								C941.5,524.3,941.2,524.3,941,524.3z"/>
						</g>
						<g>
							<path class="st4" d="M1155,522.5c0-1,0.8-1.8,1.8-1.8l0,0c1,0,1.8,0.8,1.8,1.8l0,0c0,1-0.8,1.8-1.8,1.8l0,0
								C1155.8,524.3,1155,523.5,1155,522.5z M1147.7,522.5c0-1,0.8-1.8,1.8-1.8l0,0c1,0,1.8,0.8,1.8,1.8l0,0c0,1-0.8,1.8-1.8,1.8
								l0,0C1148.5,524.3,1147.7,523.5,1147.7,522.5z M1140.3,522.5c0-1,0.8-1.8,1.8-1.8l0,0c1,0,1.8,0.8,1.8,1.8l0,0
								c0,1-0.8,1.8-1.8,1.8l0,0C1141.1,524.3,1140.3,523.5,1140.3,522.5z M1132.9,522.5c0-1,0.8-1.8,1.8-1.8l0,0
								c1,0,1.8,0.8,1.8,1.8l0,0c0,1-0.8,1.8-1.8,1.8l0,0C1133.7,524.3,1132.9,523.5,1132.9,522.5z M1125.6,522.5
								c0-1,0.8-1.8,1.8-1.8l0,0c1,0,1.8,0.8,1.8,1.8l0,0c0,1-0.8,1.8-1.8,1.8l0,0C1126.3,524.3,1125.6,523.5,1125.6,522.5z
								 M1118.2,522.5c0-1,0.8-1.8,1.8-1.8l0,0c1,0,1.8,0.8,1.8,1.8l0,0c0,1-0.8,1.8-1.8,1.8l0,0
								C1119,524.3,1118.2,523.5,1118.2,522.5z M1110.8,522.5c0-1,0.8-1.8,1.8-1.8l0,0c1,0,1.8,0.8,1.8,1.8l0,0c0,1-0.8,1.8-1.8,1.8
								l0,0C1111.6,524.3,1110.8,523.5,1110.8,522.5z M1103.4,522.5c0-1,0.8-1.8,1.8-1.8l0,0c1,0,1.8,0.8,1.8,1.8l0,0
								c0,1-0.8,1.8-1.8,1.8l0,0C1104.2,524.3,1103.4,523.5,1103.4,522.5z M1096.1,522.5c0-1,0.8-1.8,1.8-1.8l0,0
								c1,0,1.8,0.8,1.8,1.8l0,0c0,1-0.8,1.8-1.8,1.8l0,0C1096.8,524.3,1096.1,523.5,1096.1,522.5z M1088.7,522.5
								c0-1,0.8-1.8,1.8-1.8l0,0c1,0,1.8,0.8,1.8,1.8l0,0c0,1-0.8,1.8-1.8,1.8l0,0C1089.5,524.3,1088.7,523.5,1088.7,522.5z
								 M1081.3,522.5c0-1,0.8-1.8,1.8-1.8l0,0c1,0,1.8,0.8,1.8,1.8l0,0c0,1-0.8,1.8-1.8,1.8l0,0
								C1082.1,524.3,1081.3,523.5,1081.3,522.5z M1073.9,522.5c0-1,0.8-1.8,1.8-1.8l0,0c1,0,1.8,0.8,1.8,1.8l0,0
								c0,1-0.8,1.8-1.8,1.8l0,0C1074.7,524.3,1073.9,523.5,1073.9,522.5z M1066.6,522.5c0-1,0.8-1.8,1.8-1.8l0,0
								c1,0,1.8,0.8,1.8,1.8l0,0c0,1-0.8,1.8-1.8,1.8l0,0C1067.4,524.3,1066.6,523.5,1066.6,522.5z M1059.2,522.5
								c0-1,0.8-1.8,1.8-1.8l0,0c1,0,1.8,0.8,1.8,1.8l0,0c0,1-0.8,1.8-1.8,1.8l0,0C1060,524.3,1059.2,523.5,1059.2,522.5z
								 M1051.8,522.5c0-1,0.8-1.8,1.8-1.8l0,0c1,0,1.8,0.8,1.8,1.8l0,0c0,1-0.8,1.8-1.8,1.8l0,0
								C1052.6,524.3,1051.8,523.5,1051.8,522.5z M1044.4,522.5c0-1,0.8-1.8,1.8-1.8l0,0c1,0,1.8,0.8,1.8,1.8l0,0
								c0,1-0.8,1.8-1.8,1.8l0,0C1045.2,524.3,1044.4,523.5,1044.4,522.5z M1037.1,522.5c0-1,0.8-1.8,1.8-1.8l0,0
								c1,0,1.8,0.8,1.8,1.8l0,0c0,1-0.8,1.8-1.8,1.8l0,0C1037.9,524.3,1037.1,523.5,1037.1,522.5z M1029.7,522.5
								c0-1,0.8-1.8,1.8-1.8l0,0c1,0,1.8,0.8,1.8,1.8l0,0c0,1-0.8,1.8-1.8,1.8l0,0C1030.5,524.3,1029.7,523.5,1029.7,522.5z
								 M1022.3,522.5c0-1,0.8-1.8,1.8-1.8l0,0c1,0,1.8,0.8,1.8,1.8l0,0c0,1-0.8,1.8-1.8,1.8l0,0
								C1023.1,524.3,1022.3,523.5,1022.3,522.5z M1014.9,522.5c0-1,0.8-1.8,1.8-1.8l0,0c1,0,1.8,0.8,1.8,1.8l0,0
								c0,1-0.8,1.8-1.8,1.8l0,0C1015.7,524.3,1014.9,523.5,1014.9,522.5z M1007.6,522.5c0-1,0.8-1.8,1.8-1.8l0,0
								c1,0,1.8,0.8,1.8,1.8l0,0c0,1-0.8,1.8-1.8,1.8l0,0C1008.4,524.3,1007.6,523.5,1007.6,522.5z M1000.2,522.5
								c0-1,0.8-1.8,1.8-1.8l0,0c1,0,1.8,0.8,1.8,1.8l0,0c0,1-0.8,1.8-1.8,1.8l0,0C1001,524.3,1000.2,523.5,1000.2,522.5z
								 M992.8,522.5c0-1,0.8-1.8,1.8-1.8l0,0c1,0,1.8,0.8,1.8,1.8l0,0c0,1-0.8,1.8-1.8,1.8l0,0
								C993.6,524.3,992.8,523.5,992.8,522.5z M985.4,522.5c0-1,0.8-1.8,1.8-1.8l0,0c1,0,1.8,0.8,1.8,1.8l0,0c0,1-0.8,1.8-1.8,1.8
								l0,0C986.2,524.3,985.4,523.5,985.4,522.5z M978.1,522.5c0-1,0.8-1.8,1.8-1.8l0,0c1,0,1.8,0.8,1.8,1.8l0,0
								c0,1-0.8,1.8-1.8,1.8l0,0C978.9,524.3,978.1,523.5,978.1,522.5z M970.7,522.5c0-1,0.8-1.8,1.8-1.8l0,0c1,0,1.8,0.8,1.8,1.8
								l0,0c0,1-0.8,1.8-1.8,1.8l0,0C971.5,524.3,970.7,523.5,970.7,522.5z M963.3,522.5c0-1,0.8-1.8,1.8-1.8l0,0
								c1,0,1.8,0.8,1.8,1.8l0,0c0,1-0.8,1.8-1.8,1.8l0,0C964.1,524.3,963.3,523.5,963.3,522.5z M955.9,522.5c0-1,0.8-1.8,1.8-1.8
								l0,0c1,0,1.8,0.8,1.8,1.8l0,0c0,1-0.8,1.8-1.8,1.8l0,0C956.7,524.3,955.9,523.5,955.9,522.5z M948.6,522.5
								c0-1,0.8-1.8,1.8-1.8l0,0c1,0,1.8,0.8,1.8,1.8l0,0c0,1-0.8,1.8-1.8,1.8l0,0C949.4,524.3,948.6,523.5,948.6,522.5z"/>
						</g>
						<g>
							<path class="st4" d="M1165.8,524.3c-0.5,0-0.9-0.2-1.3-0.5c-0.2-0.2-0.3-0.4-0.4-0.6c-0.1-0.2-0.1-0.5-0.1-0.7
								c0-0.5,0.2-1,0.5-1.3c0.7-0.7,1.9-0.7,2.6,0c0.3,0.3,0.5,0.8,0.5,1.3c0,0.2,0,0.5-0.1,0.7c-0.1,0.2-0.2,0.4-0.4,0.6
								C1166.7,524.1,1166.2,524.3,1165.8,524.3z"/>
						</g>
					</g>
				</g>
				<g>
					<polygon class="st4" points="1053.7,412.4 1056.3,420.2 1064.5,420.2 1057.8,425 1060.4,432.9 1053.7,428 1047.1,432.9 
						1049.6,425 1043,420.2 1051.2,420.2 					"/>
					<g>
						<polygon class="st4" points="1084,412.4 1086.5,420.2 1094.8,420.2 1088.1,425 1090.7,432.9 1084,428 1077.3,432.9 
							1079.9,425 1073.2,420.2 1081.5,420.2 						"/>
						<polygon class="st4" points="1113.8,412.4 1116.4,420.2 1124.6,420.2 1117.9,425 1120.5,432.9 1113.8,428 1107.2,432.9 
							1109.7,425 1103.1,420.2 1111.3,420.2 						"/>
					</g>
					<g>
						<polygon class="st4" points="1023.2,412.4 1020.7,420.2 1012.5,420.2 1019.1,425 1016.6,432.9 1023.2,428 1029.9,432.9 
							1027.3,425 1034,420.2 1025.8,420.2 						"/>
						<polygon class="st4" points="993.4,412.4 990.9,420.2 982.6,420.2 989.3,425 986.7,432.9 993.4,428 1000.1,432.9 997.5,425 
							1004.2,420.2 995.9,420.2 						"/>
					</g>
				</g>
			</g>
			<g>
				<g>
					<text transform="matrix(0 1 -1 0 805.6541 423.142)" class="st3 st5 st9">30%</text>
				</g>
				<g>
					<text transform="matrix(0 1 -1 0 779.5877 408.5561)" class="st3 st7 st10">DISCOUNT</text>
				</g>
			</g>
		</g>
	</g>
	<g>
		<path class="st2" d="M1216.3,695.6v-3.9h-121c-6.2,2.6-55.9,22.4-116.3,22.4S869,694.3,862.8,691.7H741.9v3.9c4.1,1.4,7,5.3,7,9.8
			c0,4.5-2.9,8.4-7,9.8v2.8c4.1,1.4,7,5.3,7,9.8c0,4.5-2.9,8.4-7,9.8v3.1c4.2,1.3,7.3,5.3,7.3,10c0,4.7-3.1,8.6-7.3,10v2.5
			c4.2,1.3,7.3,5.3,7.3,10c0,4.7-3.1,8.6-7.3,10v2.8c4.2,1.3,7.3,5.3,7.3,10c0,4.7-3.1,8.6-7.3,10v2.5c4.2,1.3,7.3,5.3,7.3,10
			s-3.1,8.6-7.3,10v3c4.2,1.3,7.3,5.3,7.3,10c0,4.7-3.1,8.6-7.3,10v2.5c4.2,1.3,7.3,5.3,7.3,10c0,4.7-3.1,8.6-7.3,10v3
			c4.2,1.3,7.3,5.3,7.3,10c0,4.7-3.1,8.6-7.3,10v2.5c4.2,1.3,7.3,5.3,7.3,10c0,4.7-3.1,8.6-7.3,10v3.8h120.2
			c0,0,52.4-22.7,116.9-22.7s116.9,22.7,116.9,22.7h120.3v-3.8c-4.2-1.3-7.3-5.3-7.3-10c0-4.7,3.1-8.6,7.3-10v-2.5
			c-4.2-1.3-7.3-5.3-7.3-10c0-4.7,3.1-8.6,7.3-10v-3c-4.2-1.3-7.3-5.3-7.3-10c0-4.7,3.1-8.6,7.3-10v-2.5c-4.2-1.3-7.3-5.3-7.3-10
			c0-4.7,3.1-8.6,7.3-10v-3c-4.2-1.3-7.3-5.3-7.3-10s3.1-8.6,7.3-10v-2.5c-4.2-1.3-7.3-5.3-7.3-10c0-4.7,3.1-8.6,7.3-10v-2.8
			c-4.2-1.3-7.3-5.3-7.3-10c0-4.7,3.1-8.6,7.3-10v-2.5c-4.2-1.3-7.3-5.3-7.3-10c0-4.7,3.1-8.6,7.3-10v-3.1c-4.1-1.4-7-5.3-7-9.8
			c0-4.5,2.9-8.4,7-9.8v-2.8c-4.1-1.4-7-5.3-7-9.8C1209.4,700.9,1212.3,697.1,1216.3,695.6z"/>
		<g>
			<path class="st11" d="M1216.3,681.8v-3.9h-121c-6.2,2.6-55.9,22.4-116.3,22.4S869,680.5,862.8,677.9H741.9v3.9
				c4.1,1.4,7,5.3,7,9.8c0,4.5-2.9,8.4-7,9.8v2.8c4.1,1.4,7,5.3,7,9.8c0,4.5-2.9,8.4-7,9.8v3.1c4.2,1.3,7.3,5.3,7.3,10
				c0,4.7-3.1,8.6-7.3,10v2.5c4.2,1.3,7.3,5.3,7.3,10s-3.1,8.6-7.3,10v2.8c4.2,1.3,7.3,5.3,7.3,10c0,4.7-3.1,8.6-7.3,10v2.5
				c4.2,1.3,7.3,5.3,7.3,10c0,4.7-3.1,8.6-7.3,10v3c4.2,1.3,7.3,5.3,7.3,10c0,4.7-3.1,8.6-7.3,10v2.5c4.2,1.3,7.3,5.3,7.3,10
				s-3.1,8.6-7.3,10v3c4.2,1.3,7.3,5.3,7.3,10s-3.1,8.6-7.3,10v2.5c4.2,1.3,7.3,5.3,7.3,10c0,4.7-3.1,8.6-7.3,10v3.8h120.2
				c0,0,52.4-22.7,116.9-22.7s116.9,22.7,116.9,22.7h120.3v-3.8c-4.2-1.3-7.3-5.3-7.3-10c0-4.7,3.1-8.6,7.3-10V883
				c-4.2-1.3-7.3-5.3-7.3-10s3.1-8.6,7.3-10v-3c-4.2-1.3-7.3-5.3-7.3-10s3.1-8.6,7.3-10v-2.5c-4.2-1.3-7.3-5.3-7.3-10
				c0-4.7,3.1-8.6,7.3-10v-3c-4.2-1.3-7.3-5.3-7.3-10c0-4.7,3.1-8.6,7.3-10v-2.5c-4.2-1.3-7.3-5.3-7.3-10c0-4.7,3.1-8.6,7.3-10v-2.8
				c-4.2-1.3-7.3-5.3-7.3-10s3.1-8.6,7.3-10V747c-4.2-1.3-7.3-5.3-7.3-10c0-4.7,3.1-8.6,7.3-10V724c-4.1-1.4-7-5.3-7-9.8
				c0-4.5,2.9-8.4,7-9.8v-2.8c-4.1-1.4-7-5.3-7-9.8C1209.4,687.1,1212.3,683.2,1216.3,681.8z"/>
			<path class="st4" d="M887.5,713.1v160.8c23.1-6.3,55.5-12.8,91.6-12.8c36.1,0,68.6,6.5,91.7,12.9V713.1
				c-23.3,6.4-55.4,12.8-91.7,12.8C942.9,725.9,910.8,719.5,887.5,713.1z"/>
			<g>
				<g>
					<text transform="matrix(1 0 0 1 901.0789 793.1054)" class="st11 st5 st12">50% OFF</text>
				</g>
				<g>
					<text transform="matrix(1 0 0 1 901.0789 825.3378)" class="st11 st7 st13">SUPER SALE</text>
				</g>
			</g>
			<g>
				<polygon class="st11" points="977.2,739.7 979.2,745.8 985.6,745.8 980.4,749.6 982.4,755.7 977.2,751.9 972,755.7 974,749.6 
					968.8,745.8 975.2,745.8 				"/>
				<g>
					<polygon class="st11" points="1004.9,739.7 1006.8,745.8 1013.2,745.8 1008.1,749.6 1010,755.7 1004.9,751.9 999.7,755.7 
						1001.6,749.6 996.5,745.8 1002.9,745.8 					"/>
					<polygon class="st11" points="1030.9,739.7 1032.9,745.8 1039.3,745.8 1034.1,749.6 1036.1,755.7 1030.9,751.9 1025.8,755.7 
						1027.7,749.6 1022.5,745.8 1029,745.8 					"/>
				</g>
				<g>
					<polygon class="st11" points="949.6,739.7 947.6,745.8 941.2,745.8 946.4,749.6 944.4,755.7 949.6,751.9 954.8,755.7 
						952.8,749.6 958,745.8 951.6,745.8 					"/>
					<polygon class="st11" points="923.5,739.7 921.5,745.8 915.1,745.8 920.3,749.6 918.3,755.7 923.5,751.9 928.7,755.7 
						926.7,749.6 931.9,745.8 925.5,745.8 					"/>
				</g>
			</g>
			<g>
				<polygon class="st11" points="977.2,832.8 979.2,838.9 985.6,838.9 980.4,842.7 982.4,848.8 977.2,845 972,848.8 974,842.7 
					968.8,838.9 975.2,838.9 				"/>
				<g>
					<polygon class="st11" points="1004.9,832.8 1006.8,838.9 1013.2,838.9 1008.1,842.7 1010,848.8 1004.9,845 999.7,848.8 
						1001.6,842.7 996.5,838.9 1002.9,838.9 					"/>
					<polygon class="st11" points="1030.9,832.8 1032.9,838.9 1039.3,838.9 1034.1,842.7 1036.1,848.8 1030.9,845 1025.8,848.8 
						1027.7,842.7 1022.5,838.9 1029,838.9 					"/>
				</g>
				<g>
					<polygon class="st11" points="949.6,832.8 947.6,838.9 941.2,838.9 946.4,842.7 944.4,848.8 949.6,845 954.8,848.8 
						952.8,842.7 958,838.9 951.6,838.9 					"/>
					<polygon class="st11" points="923.5,832.8 921.5,838.9 915.1,838.9 920.3,842.7 918.3,848.8 923.5,845 928.7,848.8 
						926.7,842.7 931.9,838.9 925.5,838.9 					"/>
				</g>
			</g>
			<g>
				<path class="st14" d="M1162.4,715.6h-30.2c-2.4,0-4.4,2-4.4,4.4v147.3c0,2.4,2,4.4,4.4,4.4h30.2c2.4,0,4.4-2,4.4-4.4V719.9
					C1166.8,717.5,1164.8,715.6,1162.4,715.6z"/>
				<g>
					<text transform="matrix(0 -1 1 0 1152.1326 859.1933)" class="st4 st7 st15">LIMITED TIME OFFER</text>
				</g>
			</g>
			<g>
				<path class="st14" d="M828.1,715.6h-30.2c-2.4,0-4.4,2-4.4,4.4v147.3c0,2.4,2,4.4,4.4,4.4h30.2c2.4,0,4.4-2,4.4-4.4V719.9
					C832.5,717.5,830.5,715.6,828.1,715.6z"/>
				<g>
					
						<rect x="807.3" y="722.2" transform="matrix(-1.836970e-016 1 -1 -1.836970e-016 1546.1936 -79.8502)" class="st4" width="11.5" height="21.9"/>
					
						<rect x="807.3" y="754.4" transform="matrix(-1.836970e-016 1 -1 -1.836970e-016 1578.4066 -47.6372)" class="st4" width="11.5" height="21.9"/>
					
						<rect x="805.3" y="775.9" transform="matrix(-1.836970e-016 1 -1 -1.836970e-016 1599.906 -26.1379)" class="st4" width="15.4" height="21.9"/>
					
						<rect x="807.2" y="803.7" transform="matrix(-1.836970e-016 1 -1 -1.836970e-016 1627.6609 1.6171)" class="st4" width="11.6" height="21.9"/>
					
						<rect x="807.2" y="835.3" transform="matrix(-1.836970e-016 1 -1 -1.836970e-016 1659.2987 33.2549)" class="st4" width="11.6" height="21.9"/>
					
						<rect x="810.6" y="732.4" transform="matrix(-1.836970e-016 1 -1 -1.836970e-016 1556.332 -69.7117)" class="st4" width="4.7" height="21.9"/>
					
						<rect x="810.6" y="738.7" transform="matrix(-1.836970e-016 1 -1 -1.836970e-016 1562.6597 -63.3842)" class="st4" width="4.7" height="21.9"/>
					
						<rect x="810.6" y="744.7" transform="matrix(-1.836970e-016 1 -1 -1.836970e-016 1568.6996 -57.3442)" class="st4" width="4.7" height="21.9"/>
					
						<rect x="810.6" y="813.2" transform="matrix(-1.836970e-016 1 -1 -1.836970e-016 1637.1522 11.1084)" class="st4" width="4.7" height="21.9"/>
					
						<rect x="810.6" y="819.5" transform="matrix(-1.836970e-016 1 -1 -1.836970e-016 1643.4799 17.436)" class="st4" width="4.7" height="21.9"/>
					
						<rect x="810.6" y="825.6" transform="matrix(-1.836970e-016 1 -1 -1.836970e-016 1649.5198 23.4759)" class="st4" width="4.7" height="21.9"/>
					
						<rect x="810.6" y="787.6" transform="matrix(-1.836970e-016 1 -1 -1.836970e-016 1611.5544 -14.4894)" class="st4" width="4.7" height="21.9"/>
					
						<rect x="810.6" y="793.9" transform="matrix(-1.836970e-016 1 -1 -1.836970e-016 1617.882 -8.1618)" class="st4" width="4.7" height="21.9"/>
					
						<rect x="810.6" y="764.3" transform="matrix(-1.836970e-016 1 -1 -1.836970e-016 1588.2574 -37.7863)" class="st4" width="4.7" height="21.9"/>
					
						<rect x="810.6" y="845.1" transform="matrix(-1.836970e-016 1 -1 -1.836970e-016 1669.0776 43.0339)" class="st4" width="4.7" height="21.9"/>
				</g>
			</g>
			<path class="st4" d="M1099.9,701.6l-0.3,0.1c-17.5,6.7-64.1,22.3-120.5,22.3c-56.4,0-103.1-15.6-120.5-22.3l-0.3-0.1h-92.6v183.9
				h91.9l0.3-0.1c13.7-5.3,62.9-22.6,121.2-22.6c58.3,0,107.5,17.3,121.2,22.6l0.3,0.1h92V701.6H1099.9z M769.3,705.3h86.8v176.6
				h-86.8V705.3z M859.7,880.8V706.1c19.3,7.2,64.8,21.6,119.3,21.6c54.2,0,99.5-14.3,119-21.5v174.5c-17.5-6.4-64.3-21.5-119-21.5
				C924,859.2,877,874.5,859.7,880.8z M1189,881.9h-87.2V705.3h87.2V881.9z"/>
		</g>
	</g>
	<g>
		<path class="st2" d="M655,695.1v-3.9H213.9c-14.2,0-25.7,11.5-25.7,25.7v58.7c15.3,0,27.6,12.4,27.6,27.6S203.4,831,188.2,831
			v65.9c0,14.2,11.5,25.7,25.7,25.7H655v-3.8c-4.2-1.3-7.3-5.3-7.3-10c0-4.7,3.1-8.6,7.3-10v-2.5c-4.2-1.3-7.3-5.3-7.3-10
			c0-4.7,3.1-8.6,7.3-10v-3c-4.2-1.3-7.3-5.3-7.3-10c0-4.7,3.1-8.6,7.3-10V851c-4.2-1.3-7.3-5.3-7.3-10c0-4.7,3.1-8.6,7.3-10v-3
			c-4.2-1.3-7.3-5.3-7.3-10c0-4.7,3.1-8.6,7.3-10v-2.5c-4.2-1.3-7.3-5.3-7.3-10c0-4.7,3.1-8.6,7.3-10v-2.8c-4.2-1.3-7.3-5.3-7.3-10
			c0-4.7,3.1-8.6,7.3-10v-2.5c-4.2-1.3-7.3-5.3-7.3-10s3.1-8.6,7.3-10v-3.1c-4.1-1.4-7-5.3-7-9.8c0-4.5,2.9-8.4,7-9.8v-2.8
			c-4.1-1.4-7-5.3-7-9.8S651,696.6,655,695.1z"/>
		<g>
			<path class="st3" d="M655,681.3v-3.9H213.9c-14.2,0-25.7,11.5-25.7,25.7v58.7c15.3,0,27.6,12.4,27.6,27.6
				c0,15.3-12.4,27.6-27.6,27.6V883c0,14.2,11.5,25.7,25.7,25.7H655V905c-4.2-1.3-7.3-5.3-7.3-10c0-4.7,3.1-8.6,7.3-10v-2.5
				c-4.2-1.3-7.3-5.3-7.3-10c0-4.7,3.1-8.6,7.3-10v-3c-4.2-1.3-7.3-5.3-7.3-10c0-4.7,3.1-8.6,7.3-10v-2.5c-4.2-1.3-7.3-5.3-7.3-10
				c0-4.7,3.1-8.6,7.3-10v-3c-4.2-1.3-7.3-5.3-7.3-10s3.1-8.6,7.3-10v-2.5c-4.2-1.3-7.3-5.3-7.3-10c0-4.7,3.1-8.6,7.3-10V769
				c-4.2-1.3-7.3-5.3-7.3-10s3.1-8.6,7.3-10v-2.5c-4.2-1.3-7.3-5.3-7.3-10c0-4.7,3.1-8.6,7.3-10v-3.1c-4.1-1.4-7-5.3-7-9.8
				s2.9-8.4,7-9.8V701c-4.1-1.4-7-5.3-7-9.8C648.1,686.6,651,682.7,655,681.3z"/>
			<g>
				<path class="st4" d="M615.2,891H339.6V694.7h275.6V891z M342.1,888.5h270.6V697.2H342.1V888.5z"/>
			</g>
			<g>
				<path class="st4" d="M608.3,884.1H346.5V701.6h261.8V884.1z M347.7,882.8H607v-180H347.7V882.8z"/>
			</g>
			<rect x="245.5" y="677.4" class="st16" width="65.3" height="231.4"/>
			<text transform="matrix(0 1 -1 0 261.364 695.9189)" class="st4 st5 st17">COUPON</text>
			<g>
				<g>
					<g>
						<text transform="matrix(1 0 0 1 402.6717 774.5351)" class="st4 st5 st12">SPECIAL</text>
					</g>
					<text transform="matrix(1 0 0 1 402.6721 820.3056)" class="st4 st5 st18">OFFER</text>
					<g>
						<text transform="matrix(1 0 0 1 379.4471 851.541)" class="st4 st7 st13">UP TO 60% OFF</text>
					</g>
				</g>
				<g>
					<polygon class="st4" points="477.4,721.1 479.4,727.2 485.8,727.2 480.6,730.9 482.6,737 477.4,733.3 472.2,737 474.2,730.9 
						469,727.2 475.4,727.2 					"/>
					<g>
						<polygon class="st4" points="505,721.1 507,727.2 513.4,727.2 508.2,730.9 510.2,737 505,733.3 499.8,737 501.8,730.9 
							496.6,727.2 503,727.2 						"/>
						<polygon class="st4" points="531.1,721.1 533.1,727.2 539.5,727.2 534.3,730.9 536.3,737 531.1,733.3 525.9,737 527.9,730.9 
							522.7,727.2 529.1,727.2 						"/>
					</g>
					<g>
						<polygon class="st4" points="449.8,721.1 447.8,727.2 441.4,727.2 446.5,730.9 444.6,737 449.8,733.3 454.9,737 453,730.9 
							458.1,727.2 451.7,727.2 						"/>
						<polygon class="st4" points="423.7,721.1 421.7,727.2 415.3,727.2 420.5,730.9 418.5,737 423.7,733.3 428.9,737 426.9,730.9 
							432.1,727.2 425.6,727.2 						"/>
					</g>
				</g>
				<g>
					<path class="st4" d="M576.1,863.3c0-0.7,0.6-1.3,1.3-1.3l0,0c0.7,0,1.3,0.6,1.3,1.3l0,0c0,0.7-0.6,1.3-1.3,1.3l0,0
						C576.7,864.5,576.1,864,576.1,863.3z M571.1,863.3c0-0.7,0.6-1.3,1.3-1.3l0,0c0.7,0,1.3,0.6,1.3,1.3l0,0c0,0.7-0.6,1.3-1.3,1.3
						l0,0C571.7,864.5,571.1,864,571.1,863.3z M566.1,863.3c0-0.7,0.6-1.3,1.3-1.3l0,0c0.7,0,1.3,0.6,1.3,1.3l0,0
						c0,0.7-0.6,1.3-1.3,1.3l0,0C566.7,864.5,566.1,864,566.1,863.3z M561.1,863.3c0-0.7,0.6-1.3,1.3-1.3l0,0c0.7,0,1.3,0.6,1.3,1.3
						l0,0c0,0.7-0.6,1.3-1.3,1.3l0,0C561.6,864.5,561.1,864,561.1,863.3z M556,863.3c0-0.7,0.6-1.3,1.3-1.3l0,0
						c0.7,0,1.3,0.6,1.3,1.3l0,0c0,0.7-0.6,1.3-1.3,1.3l0,0C556.6,864.5,556,864,556,863.3z M551,863.3c0-0.7,0.6-1.3,1.3-1.3l0,0
						c0.7,0,1.3,0.6,1.3,1.3l0,0c0,0.7-0.6,1.3-1.3,1.3l0,0C551.6,864.5,551,864,551,863.3z M546,863.3c0-0.7,0.6-1.3,1.3-1.3l0,0
						c0.7,0,1.3,0.6,1.3,1.3l0,0c0,0.7-0.6,1.3-1.3,1.3l0,0C546.6,864.5,546,864,546,863.3z M541,863.3c0-0.7,0.6-1.3,1.3-1.3l0,0
						c0.7,0,1.3,0.6,1.3,1.3l0,0c0,0.7-0.6,1.3-1.3,1.3l0,0C541.5,864.5,541,864,541,863.3z M536,863.3c0-0.7,0.6-1.3,1.3-1.3l0,0
						c0.7,0,1.3,0.6,1.3,1.3l0,0c0,0.7-0.6,1.3-1.3,1.3l0,0C536.5,864.5,536,864,536,863.3z M530.9,863.3c0-0.7,0.6-1.3,1.3-1.3l0,0
						c0.7,0,1.3,0.6,1.3,1.3l0,0c0,0.7-0.6,1.3-1.3,1.3l0,0C531.5,864.5,530.9,864,530.9,863.3z M525.9,863.3c0-0.7,0.6-1.3,1.3-1.3
						l0,0c0.7,0,1.3,0.6,1.3,1.3l0,0c0,0.7-0.6,1.3-1.3,1.3l0,0C526.5,864.5,525.9,864,525.9,863.3z M520.9,863.3
						c0-0.7,0.6-1.3,1.3-1.3l0,0c0.7,0,1.3,0.6,1.3,1.3l0,0c0,0.7-0.6,1.3-1.3,1.3l0,0C521.5,864.5,520.9,864,520.9,863.3z
						 M515.9,863.3c0-0.7,0.6-1.3,1.3-1.3l0,0c0.7,0,1.3,0.6,1.3,1.3l0,0c0,0.7-0.6,1.3-1.3,1.3l0,0
						C516.4,864.5,515.9,864,515.9,863.3z M510.8,863.3c0-0.7,0.6-1.3,1.3-1.3l0,0c0.7,0,1.3,0.6,1.3,1.3l0,0c0,0.7-0.6,1.3-1.3,1.3
						l0,0C511.4,864.5,510.8,864,510.8,863.3z M505.8,863.3c0-0.7,0.6-1.3,1.3-1.3l0,0c0.7,0,1.3,0.6,1.3,1.3l0,0
						c0,0.7-0.6,1.3-1.3,1.3l0,0C506.4,864.5,505.8,864,505.8,863.3z M500.8,863.3c0-0.7,0.6-1.3,1.3-1.3l0,0c0.7,0,1.3,0.6,1.3,1.3
						l0,0c0,0.7-0.6,1.3-1.3,1.3l0,0C501.4,864.5,500.8,864,500.8,863.3z M495.8,863.3c0-0.7,0.6-1.3,1.3-1.3l0,0
						c0.7,0,1.3,0.6,1.3,1.3l0,0c0,0.7-0.6,1.3-1.3,1.3l0,0C496.3,864.5,495.8,864,495.8,863.3z M490.8,863.3c0-0.7,0.6-1.3,1.3-1.3
						l0,0c0.7,0,1.3,0.6,1.3,1.3l0,0c0,0.7-0.6,1.3-1.3,1.3l0,0C491.3,864.5,490.8,864,490.8,863.3z M485.7,863.3
						c0-0.7,0.6-1.3,1.3-1.3l0,0c0.7,0,1.3,0.6,1.3,1.3l0,0c0,0.7-0.6,1.3-1.3,1.3l0,0C486.3,864.5,485.7,864,485.7,863.3z
						 M480.7,863.3c0-0.7,0.6-1.3,1.3-1.3l0,0c0.7,0,1.3,0.6,1.3,1.3l0,0c0,0.7-0.6,1.3-1.3,1.3l0,0
						C481.3,864.5,480.7,864,480.7,863.3z M475.7,863.3c0-0.7,0.6-1.3,1.3-1.3l0,0c0.7,0,1.3,0.6,1.3,1.3l0,0c0,0.7-0.6,1.3-1.3,1.3
						l0,0C476.3,864.5,475.7,864,475.7,863.3z M470.7,863.3c0-0.7,0.6-1.3,1.3-1.3l0,0c0.7,0,1.3,0.6,1.3,1.3l0,0
						c0,0.7-0.6,1.3-1.3,1.3l0,0C471.2,864.5,470.7,864,470.7,863.3z M465.7,863.3c0-0.7,0.6-1.3,1.3-1.3l0,0c0.7,0,1.3,0.6,1.3,1.3
						l0,0c0,0.7-0.6,1.3-1.3,1.3l0,0C466.2,864.5,465.7,864,465.7,863.3z M460.6,863.3c0-0.7,0.6-1.3,1.3-1.3l0,0
						c0.7,0,1.3,0.6,1.3,1.3l0,0c0,0.7-0.6,1.3-1.3,1.3l0,0C461.2,864.5,460.6,864,460.6,863.3z M455.6,863.3c0-0.7,0.6-1.3,1.3-1.3
						l0,0c0.7,0,1.3,0.6,1.3,1.3l0,0c0,0.7-0.6,1.3-1.3,1.3l0,0C456.2,864.5,455.6,864,455.6,863.3z M450.6,863.3
						c0-0.7,0.6-1.3,1.3-1.3l0,0c0.7,0,1.3,0.6,1.3,1.3l0,0c0,0.7-0.6,1.3-1.3,1.3l0,0C451.2,864.5,450.6,864,450.6,863.3z
						 M445.6,863.3c0-0.7,0.6-1.3,1.3-1.3l0,0c0.7,0,1.3,0.6,1.3,1.3l0,0c0,0.7-0.6,1.3-1.3,1.3l0,0
						C446.1,864.5,445.6,864,445.6,863.3z M440.5,863.3c0-0.7,0.6-1.3,1.3-1.3l0,0c0.7,0,1.3,0.6,1.3,1.3l0,0c0,0.7-0.6,1.3-1.3,1.3
						l0,0C441.1,864.5,440.5,864,440.5,863.3z M435.5,863.3c0-0.7,0.6-1.3,1.3-1.3l0,0c0.7,0,1.3,0.6,1.3,1.3l0,0
						c0,0.7-0.6,1.3-1.3,1.3l0,0C436.1,864.5,435.5,864,435.5,863.3z M430.5,863.3c0-0.7,0.6-1.3,1.3-1.3l0,0c0.7,0,1.3,0.6,1.3,1.3
						l0,0c0,0.7-0.6,1.3-1.3,1.3l0,0C431.1,864.5,430.5,864,430.5,863.3z M425.5,863.3c0-0.7,0.6-1.3,1.3-1.3l0,0
						c0.7,0,1.3,0.6,1.3,1.3l0,0c0,0.7-0.6,1.3-1.3,1.3l0,0C426,864.5,425.5,864,425.5,863.3z M420.5,863.3c0-0.7,0.6-1.3,1.3-1.3
						l0,0c0.7,0,1.3,0.6,1.3,1.3l0,0c0,0.7-0.6,1.3-1.3,1.3l0,0C421,864.5,420.5,864,420.5,863.3z M415.4,863.3
						c0-0.7,0.6-1.3,1.3-1.3l0,0c0.7,0,1.3,0.6,1.3,1.3l0,0c0,0.7-0.6,1.3-1.3,1.3l0,0C416,864.5,415.4,864,415.4,863.3z
						 M410.4,863.3c0-0.7,0.6-1.3,1.3-1.3l0,0c0.7,0,1.3,0.6,1.3,1.3l0,0c0,0.7-0.6,1.3-1.3,1.3l0,0
						C411,864.5,410.4,864,410.4,863.3z M405.4,863.3c0-0.7,0.6-1.3,1.3-1.3l0,0c0.7,0,1.3,0.6,1.3,1.3l0,0c0,0.7-0.6,1.3-1.3,1.3
						l0,0C406,864.5,405.4,864,405.4,863.3z M400.4,863.3c0-0.7,0.6-1.3,1.3-1.3l0,0c0.7,0,1.3,0.6,1.3,1.3l0,0
						c0,0.7-0.6,1.3-1.3,1.3l0,0C400.9,864.5,400.4,864,400.4,863.3z M395.3,863.3c0-0.7,0.6-1.3,1.3-1.3l0,0c0.7,0,1.3,0.6,1.3,1.3
						l0,0c0,0.7-0.6,1.3-1.3,1.3l0,0C395.9,864.5,395.3,864,395.3,863.3z M390.3,863.3c0-0.7,0.6-1.3,1.3-1.3l0,0
						c0.7,0,1.3,0.6,1.3,1.3l0,0c0,0.7-0.6,1.3-1.3,1.3l0,0C390.9,864.5,390.3,864,390.3,863.3z M385.3,863.3c0-0.7,0.6-1.3,1.3-1.3
						l0,0c0.7,0,1.3,0.6,1.3,1.3l0,0c0,0.7-0.6,1.3-1.3,1.3l0,0C385.9,864.5,385.3,864,385.3,863.3z M380.3,863.3
						c0-0.7,0.6-1.3,1.3-1.3l0,0c0.7,0,1.3,0.6,1.3,1.3l0,0c0,0.7-0.6,1.3-1.3,1.3l0,0C380.8,864.5,380.3,864,380.3,863.3z"/>
				</g>
			</g>
		</g>
	</g>
	<g>
		<path class="st2" d="M1214,142.4v-2.5c-4.2-1.3-7.3-5.3-7.3-10c0-2.5,0.9-4.8,2.4-6.7c-26.8-2.5-47.8-25-47.8-52.5h-1.9
			c-0.1,4.6-3.8,8.4-8.5,8.4s-8.4-3.7-8.5-8.4h-1.3c-0.1,4.6-3.8,8.4-8.5,8.4s-8.4-3.7-8.5-8.4h-1.3c-0.1,4.6-3.8,8.4-8.5,8.4
			c-4.7,0-8.4-3.7-8.5-8.4h-1.3c-0.1,4.6-3.8,8.4-8.5,8.4c-4.7,0-8.4-3.7-8.5-8.4h-1.3c-0.1,4.6-3.8,8.4-8.5,8.4s-8.4-3.7-8.5-8.4
			h-1.3c-0.1,4.6-3.8,8.4-8.5,8.4s-8.4-3.7-8.5-8.4h-1.3c-0.1,4.6-3.8,8.4-8.5,8.4s-8.4-3.7-8.5-8.4h-1.3c-0.1,4.6-3.8,8.4-8.5,8.4
			s-8.4-3.7-8.5-8.4h-1.3c-0.1,4.6-3.8,8.4-8.5,8.4s-8.4-3.7-8.5-8.4h-1.3c-0.1,4.6-3.8,8.4-8.5,8.4c-4.7,0-8.4-3.7-8.5-8.4h-1.3
			c-0.1,4.6-3.8,8.4-8.5,8.4c-4.7,0-8.4-3.7-8.5-8.4h-1.3c-0.1,4.6-3.8,8.4-8.5,8.4s-8.4-3.7-8.5-8.4H940c-0.1,4.6-3.8,8.4-8.5,8.4
			s-8.4-3.7-8.5-8.4h-1.3c-0.1,4.6-3.8,8.4-8.5,8.4s-8.4-3.7-8.5-8.4h-1.3c-0.1,4.6-3.8,8.4-8.5,8.4s-8.4-3.7-8.5-8.4h-1.3
			c-0.1,4.6-3.8,8.4-8.5,8.4s-8.4-3.7-8.5-8.4h-1.3c-0.1,4.6-3.8,8.4-8.5,8.4c-4.7,0-8.4-3.7-8.5-8.4h-1.3c-0.1,4.6-3.8,8.4-8.5,8.4
			c-4.7,0-8.4-3.7-8.5-8.4h-1.3c-0.1,4.6-3.8,8.4-8.5,8.4s-8.4-3.7-8.5-8.4H812c-0.1,4.6-3.8,8.4-8.5,8.4s-8.4-3.7-8.5-8.4h-1.9
			c0,27.5-21,50-47.8,52.5c1.5,1.8,2.4,4.1,2.4,6.7c0,4.7-3.1,8.6-7.3,10v2.5c4.2,1.3,7.3,5.3,7.3,10c0,4.7-3.1,8.6-7.3,10v2.8
			c4.2,1.3,7.3,5.3,7.3,10c0,4.7-3.1,8.6-7.3,10v2.5c4.2,1.3,7.3,5.3,7.3,10c0,4.7-3.1,8.6-7.3,10v3c4.2,1.3,7.3,5.3,7.3,10
			s-3.1,8.6-7.3,10v2.5c4.2,1.3,7.3,5.3,7.3,10c0,2.5-0.9,4.8-2.4,6.6c26.8,2.5,47.8,25,47.8,52.5h1.9c0-4.7,3.8-8.5,8.5-8.5
			s8.5,3.8,8.5,8.5h1.3c0-4.7,3.8-8.5,8.5-8.5s8.5,3.8,8.5,8.5h1.3c0-4.7,3.8-8.5,8.5-8.5c4.7,0,8.5,3.8,8.5,8.5h1.3
			c0-4.7,3.8-8.5,8.5-8.5c4.7,0,8.5,3.8,8.5,8.5h1.3c0-4.7,3.8-8.5,8.5-8.5s8.5,3.8,8.5,8.5h1.3c0-4.7,3.8-8.5,8.5-8.5
			s8.5,3.8,8.5,8.5h1.3c0-4.7,3.8-8.5,8.5-8.5s8.5,3.8,8.5,8.5h1.3c0-4.7,3.8-8.5,8.5-8.5s8.5,3.8,8.5,8.5h1.3
			c0-4.7,3.8-8.5,8.5-8.5s8.5,3.8,8.5,8.5h1.3c0-4.7,3.8-8.5,8.5-8.5c4.7,0,8.5,3.8,8.5,8.5h1.3c0-4.7,3.8-8.5,8.5-8.5
			c4.7,0,8.5,3.8,8.5,8.5h1.3c0-4.7,3.8-8.5,8.5-8.5s8.5,3.8,8.5,8.5h1.3c0-4.7,3.8-8.5,8.5-8.5s8.5,3.8,8.5,8.5h1.3
			c0-4.7,3.8-8.5,8.5-8.5s8.5,3.8,8.5,8.5h1.3c0-4.7,3.8-8.5,8.5-8.5s8.5,3.8,8.5,8.5h1.3c0-4.7,3.8-8.5,8.5-8.5s8.5,3.8,8.5,8.5
			h1.3c0-4.7,3.8-8.5,8.5-8.5c4.7,0,8.5,3.8,8.5,8.5h1.3c0-4.7,3.8-8.5,8.5-8.5c4.7,0,8.5,3.8,8.5,8.5h1.3c0-4.7,3.8-8.5,8.5-8.5
			s8.5,3.8,8.5,8.5h1.3c0-4.7,3.8-8.5,8.5-8.5s8.5,3.8,8.5,8.5h1.9c0-27.5,21-50,47.8-52.5c-1.5-1.8-2.4-4.1-2.4-6.6
			c0-4.7,3.1-8.6,7.3-10v-2.5c-4.2-1.3-7.3-5.3-7.3-10s3.1-8.6,7.3-10v-3c-4.2-1.3-7.3-5.3-7.3-10c0-4.7,3.1-8.6,7.3-10v-2.5
			c-4.2-1.3-7.3-5.3-7.3-10c0-4.7,3.1-8.6,7.3-10v-2.8c-4.2-1.3-7.3-5.3-7.3-10C1206.7,147.7,1209.8,143.7,1214,142.4z"/>
		<g>
			<path class="st19" d="M1214,128.6V126c-4.2-1.3-7.3-5.3-7.3-10c0-2.5,0.9-4.8,2.4-6.7c-26.8-2.5-47.8-25-47.8-52.5h-1.9
				c-0.1,4.6-3.8,8.4-8.5,8.4s-8.4-3.7-8.5-8.4h-1.3c-0.1,4.6-3.8,8.4-8.5,8.4s-8.4-3.7-8.5-8.4h-1.3c-0.1,4.6-3.8,8.4-8.5,8.4
				c-4.7,0-8.4-3.7-8.5-8.4h-1.3c-0.1,4.6-3.8,8.4-8.5,8.4c-4.7,0-8.4-3.7-8.5-8.4h-1.3c-0.1,4.6-3.8,8.4-8.5,8.4s-8.4-3.7-8.5-8.4
				h-1.3c-0.1,4.6-3.8,8.4-8.5,8.4s-8.4-3.7-8.5-8.4h-1.3c-0.1,4.6-3.8,8.4-8.5,8.4s-8.4-3.7-8.5-8.4h-1.3c-0.1,4.6-3.8,8.4-8.5,8.4
				s-8.4-3.7-8.5-8.4h-1.3c-0.1,4.6-3.8,8.4-8.5,8.4s-8.4-3.7-8.5-8.4h-1.3c-0.1,4.6-3.8,8.4-8.5,8.4c-4.7,0-8.4-3.7-8.5-8.4h-1.3
				c-0.1,4.6-3.8,8.4-8.5,8.4c-4.7,0-8.4-3.7-8.5-8.4h-1.3c-0.1,4.6-3.8,8.4-8.5,8.4s-8.4-3.7-8.5-8.4H940c-0.1,4.6-3.8,8.4-8.5,8.4
				s-8.4-3.7-8.5-8.4h-1.3c-0.1,4.6-3.8,8.4-8.5,8.4s-8.4-3.7-8.5-8.4h-1.3c-0.1,4.6-3.8,8.4-8.5,8.4s-8.4-3.7-8.5-8.4h-1.3
				c-0.1,4.6-3.8,8.4-8.5,8.4s-8.4-3.7-8.5-8.4h-1.3c-0.1,4.6-3.8,8.4-8.5,8.4c-4.7,0-8.4-3.7-8.5-8.4h-1.3
				c-0.1,4.6-3.8,8.4-8.5,8.4c-4.7,0-8.4-3.7-8.5-8.4h-1.3c-0.1,4.6-3.8,8.4-8.5,8.4s-8.4-3.7-8.5-8.4H812c-0.1,4.6-3.8,8.4-8.5,8.4
				s-8.4-3.7-8.5-8.4h-1.9c0,27.5-21,50-47.8,52.5c1.5,1.8,2.4,4.1,2.4,6.7c0,4.7-3.1,8.6-7.3,10v2.5c4.2,1.3,7.3,5.3,7.3,10
				c0,4.7-3.1,8.6-7.3,10v2.8c4.2,1.3,7.3,5.3,7.3,10c0,4.7-3.1,8.6-7.3,10v2.5c4.2,1.3,7.3,5.3,7.3,10c0,4.7-3.1,8.6-7.3,10v3
				c4.2,1.3,7.3,5.3,7.3,10s-3.1,8.6-7.3,10v2.5c4.2,1.3,7.3,5.3,7.3,10c0,2.5-0.9,4.8-2.4,6.6c26.8,2.5,47.8,25,47.8,52.5h1.9
				c0-4.7,3.8-8.5,8.5-8.5s8.5,3.8,8.5,8.5h1.3c0-4.7,3.8-8.5,8.5-8.5s8.5,3.8,8.5,8.5h1.3c0-4.7,3.8-8.5,8.5-8.5
				c4.7,0,8.5,3.8,8.5,8.5h1.3c0-4.7,3.8-8.5,8.5-8.5c4.7,0,8.5,3.8,8.5,8.5h1.3c0-4.7,3.8-8.5,8.5-8.5s8.5,3.8,8.5,8.5h1.3
				c0-4.7,3.8-8.5,8.5-8.5s8.5,3.8,8.5,8.5h1.3c0-4.7,3.8-8.5,8.5-8.5s8.5,3.8,8.5,8.5h1.3c0-4.7,3.8-8.5,8.5-8.5s8.5,3.8,8.5,8.5
				h1.3c0-4.7,3.8-8.5,8.5-8.5s8.5,3.8,8.5,8.5h1.3c0-4.7,3.8-8.5,8.5-8.5c4.7,0,8.5,3.8,8.5,8.5h1.3c0-4.7,3.8-8.5,8.5-8.5
				c4.7,0,8.5,3.8,8.5,8.5h1.3c0-4.7,3.8-8.5,8.5-8.5s8.5,3.8,8.5,8.5h1.3c0-4.7,3.8-8.5,8.5-8.5s8.5,3.8,8.5,8.5h1.3
				c0-4.7,3.8-8.5,8.5-8.5s8.5,3.8,8.5,8.5h1.3c0-4.7,3.8-8.5,8.5-8.5s8.5,3.8,8.5,8.5h1.3c0-4.7,3.8-8.5,8.5-8.5s8.5,3.8,8.5,8.5
				h1.3c0-4.7,3.8-8.5,8.5-8.5c4.7,0,8.5,3.8,8.5,8.5h1.3c0-4.7,3.8-8.5,8.5-8.5c4.7,0,8.5,3.8,8.5,8.5h1.3c0-4.7,3.8-8.5,8.5-8.5
				s8.5,3.8,8.5,8.5h1.3c0-4.7,3.8-8.5,8.5-8.5s8.5,3.8,8.5,8.5h1.9c0-27.5,21-50,47.8-52.5c-1.5-1.8-2.4-4.1-2.4-6.6
				c0-4.7,3.1-8.6,7.3-10v-2.5c-4.2-1.3-7.3-5.3-7.3-10s3.1-8.6,7.3-10v-3c-4.2-1.3-7.3-5.3-7.3-10c0-4.7,3.1-8.6,7.3-10v-2.5
				c-4.2-1.3-7.3-5.3-7.3-10c0-4.7,3.1-8.6,7.3-10v-2.8c-4.2-1.3-7.3-5.3-7.3-10C1206.7,133.9,1209.8,129.9,1214,128.6z"/>
			<path class="st4" d="M1117,89.5H837.4c-7.9,0-14.2,6.4-14.2,14.2v137.7c0,7.9,6.4,14.2,14.2,14.2H1117c7.9,0,14.2-6.4,14.2-14.2
				V103.8C1131.3,95.9,1124.9,89.5,1117,89.5z"/>
			<rect x="851.1" y="89.5" class="st20" width="40.4" height="166.2"/>
			<g>
				
					<rect x="865.1" y="97.5" transform="matrix(-1.836970e-016 1 -1 -1.836970e-016 979.6907 -762.8967)" class="st4" width="12.3" height="21.9"/>
				
					<rect x="865.1" y="132" transform="matrix(-1.836970e-016 1 -1 -1.836970e-016 1014.2023 -728.3851)" class="st4" width="12.3" height="21.9"/>
				
					<rect x="863.1" y="155" transform="matrix(-1.836970e-016 1 -1 -1.836970e-016 1037.2357 -705.3517)" class="st4" width="16.5" height="21.9"/>
				
					<rect x="865.1" y="184.7" transform="matrix(-1.836970e-016 1 -1 -1.836970e-016 1066.9712 -675.6163)" class="st4" width="12.5" height="21.9"/>
				
					<rect x="865.1" y="218.6" transform="matrix(-1.836970e-016 1 -1 -1.836970e-016 1100.8665 -641.7209)" class="st4" width="12.5" height="21.9"/>
				
					<rect x="868.8" y="108.3" transform="matrix(-1.836970e-016 1 -1 -1.836970e-016 990.5526 -752.0348)" class="st4" width="5.1" height="21.9"/>
				
					<rect x="868.8" y="115.1" transform="matrix(-1.836970e-016 1 -1 -1.836970e-016 997.3317 -745.2557)" class="st4" width="5.1" height="21.9"/>
				
					<rect x="868.8" y="121.6" transform="matrix(-1.836970e-016 1 -1 -1.836970e-016 1003.8026 -738.7849)" class="st4" width="5.1" height="21.9"/>
				
					<rect x="868.8" y="194.9" transform="matrix(-1.836970e-016 1 -1 -1.836970e-016 1077.1398 -665.4476)" class="st4" width="5.1" height="21.9"/>
				
					<rect x="868.8" y="201.7" transform="matrix(-1.836970e-016 1 -1 -1.836970e-016 1083.9188 -658.6686)" class="st4" width="5.1" height="21.9"/>
				
					<rect x="868.8" y="208.2" transform="matrix(-1.836970e-016 1 -1 -1.836970e-016 1090.3898 -652.1976)" class="st4" width="5.1" height="21.9"/>
				
					<rect x="868.8" y="167.5" transform="matrix(-1.836970e-016 1 -1 -1.836970e-016 1049.7153 -692.8721)" class="st4" width="5.1" height="21.9"/>
				
					<rect x="868.8" y="174.3" transform="matrix(-1.836970e-016 1 -1 -1.836970e-016 1056.4944 -686.093)" class="st4" width="5.1" height="21.9"/>
				
					<rect x="868.8" y="142.5" transform="matrix(-1.836970e-016 1 -1 -1.836970e-016 1024.7561 -717.8314)" class="st4" width="5.1" height="21.9"/>
				
					<rect x="868.8" y="229.1" transform="matrix(-1.836970e-016 1 -1 -1.836970e-016 1111.3433 -631.2442)" class="st4" width="5.1" height="21.9"/>
			</g>
			<g>
				<g>
					<g>
						<g>
							<text transform="matrix(1 0 0 1 925.2381 166.6425)" class="st19 st5 st21">UP TO</text>
						</g>
						<g>
							<g>
								<g>
									<text transform="matrix(1 0 0 1 922.4647 236.2773)" class="st19 st5 st22">60</text>
								</g>
								<g>
									<text transform="matrix(1 0 0 1 1014.5984 236.2773)" class="st19 st5 st23">OFF</text>
								</g>
								<g>
									<text transform="matrix(1 0 0 1 1014.5994 215.0292)" class="st19 st5 st24">%</text>
								</g>
							</g>
						</g>
					</g>
				</g>
				<g>
					<text transform="matrix(0 -1 1 0 1091.658 240.2314)" class="st20 st25 st26">SUPER SALE</text>
				</g>
				<g>
					<g>
						<g>
							<polygon class="st19" points="995.4,104 997.8,111.3 1005.5,111.3 999.2,115.8 1001.6,123.1 995.4,118.6 989.2,123.1 
								991.6,115.8 985.4,111.3 993,111.3 							"/>
						</g>
						<g>
							<g>
								<polygon class="st19" points="1023.6,104 1026,111.3 1033.7,111.3 1027.5,115.8 1029.8,123.1 1023.6,118.6 1017.4,123.1 
									1019.8,115.8 1013.6,111.3 1021.3,111.3 								"/>
							</g>
							<g>
								<polygon class="st19" points="1051.4,104 1053.8,111.3 1061.5,111.3 1055.3,115.8 1057.6,123.1 1051.4,118.6 1045.2,123.1 
									1047.6,115.8 1041.4,111.3 1049.1,111.3 								"/>
							</g>
						</g>
						<g>
							<g>
								<polygon class="st19" points="967,104 964.6,111.3 956.9,111.3 963.2,115.8 960.8,123.1 967,118.6 973.2,123.1 970.8,115.8 
									977,111.3 969.4,111.3 								"/>
							</g>
							<g>
								<polygon class="st19" points="939.2,104 936.8,111.3 929.2,111.3 935.4,115.8 933,123.1 939.2,118.6 945.4,123.1 943,115.8 
									949.2,111.3 941.6,111.3 								"/>
							</g>
						</g>
					</g>
				</g>
			</g>
		</g>
	</g>
	<g>
		<path class="st2" d="M660.1,264.2c-4.2,0-7.6-3.4-7.6-7.6c0-4.2,3.4-7.6,7.6-7.6c0,0,0,0,0,0v-0.8c0,0,0,0,0,0
			c-4.2,0-7.6-3.4-7.6-7.6c0-4.2,3.4-7.6,7.6-7.6c0,0,0,0,0,0v-0.8c0,0,0,0,0,0c-4.2,0-7.6-3.4-7.6-7.6c0-4.2,3.4-7.6,7.6-7.6
			c0,0,0,0,0,0v-0.9c-15.9,0-28.9-12.9-28.9-28.9c0-15.9,12.9-28.9,28.9-28.9v-1.3c-4.2,0-7.6-3.4-7.6-7.6c0-4.2,3.4-7.6,7.6-7.6
			v-0.8c-4.2,0-7.6-3.4-7.6-7.6c0-4.2,3.4-7.6,7.6-7.6v-0.8c-4.2,0-7.6-3.4-7.6-7.6c0-4.2,3.4-7.6,7.6-7.6v-0.8
			c-20.6,0-37.2-16.7-37.2-37.2H230.5c0,20.6-16.7,37.2-37.2,37.2v0.8c0.1,0,0.2,0,0.3,0c4.2,0,7.6,3.4,7.6,7.6
			c0,4.2-3.4,7.6-7.6,7.6c-0.1,0-0.2,0-0.3,0v0.8c0.1,0,0.2,0,0.3,0c4.2,0,7.6,3.4,7.6,7.6c0,4.2-3.4,7.6-7.6,7.6
			c-0.1,0-0.2,0-0.3,0v0.8c0.1,0,0.2,0,0.3,0c4.2,0,7.6,3.4,7.6,7.6c0,4.2-3.4,7.6-7.6,7.6c-0.1,0-0.2,0-0.3,0v1.4
			c15.9,0,28.9,12.9,28.9,28.9c0,15.9-12.9,28.9-28.9,28.9v0.9c0.1,0,0.1,0,0.2,0c4.2,0,7.6,3.4,7.6,7.6c0,4.2-3.4,7.6-7.6,7.6
			c-0.1,0-0.1,0-0.2,0v0.8c0.1,0,0.1,0,0.2,0c4.2,0,7.6,3.4,7.6,7.6c0,4.2-3.4,7.6-7.6,7.6c-0.1,0-0.1,0-0.2,0v0.8
			c0.1,0,0.1,0,0.2,0c4.2,0,7.6,3.4,7.6,7.6c0,4.2-3.4,7.6-7.6,7.6c-0.1,0-0.1,0-0.2,0v1.3c20.6,0,37.2,16.7,37.2,37.2h392.4
			c0-20.6,16.7-37.2,37.2-37.2L660.1,264.2C660.2,264.2,660.1,264.2,660.1,264.2z"/>
		<g>
			<path class="st11" d="M660.1,250.4c-4.2,0-7.6-3.4-7.6-7.6c0-4.2,3.4-7.6,7.6-7.6c0,0,0,0,0,0v-0.8c0,0,0,0,0,0
				c-4.2,0-7.6-3.4-7.6-7.6c0-4.2,3.4-7.6,7.6-7.6c0,0,0,0,0,0v-0.8c0,0,0,0,0,0c-4.2,0-7.6-3.4-7.6-7.6c0-4.2,3.4-7.6,7.6-7.6
				c0,0,0,0,0,0v-0.9c-15.9,0-28.9-12.9-28.9-28.9c0-15.9,12.9-28.9,28.9-28.9V143c-4.2,0-7.6-3.4-7.6-7.6c0-4.2,3.4-7.6,7.6-7.6
				V127c-4.2,0-7.6-3.4-7.6-7.6c0-4.2,3.4-7.6,7.6-7.6v-0.8c-4.2,0-7.6-3.4-7.6-7.6c0-4.2,3.4-7.6,7.6-7.6v-0.8
				c-20.6,0-37.2-16.7-37.2-37.2H230.5c0,20.6-16.7,37.2-37.2,37.2v0.8c0.1,0,0.2,0,0.3,0c4.2,0,7.6,3.4,7.6,7.6
				c0,4.2-3.4,7.6-7.6,7.6c-0.1,0-0.2,0-0.3,0v0.8c0.1,0,0.2,0,0.3,0c4.2,0,7.6,3.4,7.6,7.6c0,4.2-3.4,7.6-7.6,7.6
				c-0.1,0-0.2,0-0.3,0v0.8c0.1,0,0.2,0,0.3,0c4.2,0,7.6,3.4,7.6,7.6c0,4.2-3.4,7.6-7.6,7.6c-0.1,0-0.2,0-0.3,0v1.4
				c15.9,0,28.9,12.9,28.9,28.9c0,15.9-12.9,28.9-28.9,28.9v0.9c0.1,0,0.1,0,0.2,0c4.2,0,7.6,3.4,7.6,7.6c0,4.2-3.4,7.6-7.6,7.6
				c-0.1,0-0.1,0-0.2,0v0.8c0.1,0,0.1,0,0.2,0c4.2,0,7.6,3.4,7.6,7.6c0,4.2-3.4,7.6-7.6,7.6c-0.1,0-0.1,0-0.2,0v0.8
				c0.1,0,0.1,0,0.2,0c4.2,0,7.6,3.4,7.6,7.6c0,4.2-3.4,7.6-7.6,7.6c-0.1,0-0.1,0-0.2,0v1.3c20.6,0,37.2,16.7,37.2,37.2h392.4
				c0-20.6,16.7-37.2,37.2-37.2L660.1,250.4C660.2,250.4,660.1,250.4,660.1,250.4z"/>
			<path class="st27" d="M620.5,112.8c-7.8-6.1-14.4-13.8-19.1-22.6H255.1c-4.7,8.8-11.2,16.5-19.1,22.6V129
				c11.6,11.2,18.8,26.9,18.8,44.2c0,17.3-7.2,33-18.8,44.2v16.2c7.8,6.1,14.4,13.8,19.1,22.6h346.4c4.7-8.8,11.2-16.5,19.1-22.6
				v-16.2c-11.6-11.2-18.8-26.9-18.8-44.2c0-17.3,7.2-33,18.8-44.2V112.8z"/>
			<g>
				<g>
					<g>
						<text transform="matrix(1 0 0 1 350.0305 173.6103)" class="st4 st5 st28">SUPER SALE</text>
					</g>
					<text transform="matrix(1 0 0 1 350.031 226.1157)" class="st4 st5 st29">COUPON</text>
				</g>
				<g>
					<g>
						<g>
							<polygon class="st4" points="463.5,109.6 466.1,117.4 474.3,117.4 467.6,122.2 470.2,130.1 463.5,125.2 456.9,130.1 
								459.4,122.2 452.7,117.4 461,117.4 							"/>
						</g>
						<g>
							<g>
								<polygon class="st4" points="493.8,109.6 496.3,117.4 504.6,117.4 497.9,122.2 500.4,130.1 493.8,125.2 487.1,130.1 
									489.7,122.2 483,117.4 491.2,117.4 								"/>
							</g>
							<g>
								<polygon class="st4" points="523.6,109.6 526.2,117.4 534.4,117.4 527.7,122.2 530.3,130.1 523.6,125.2 517,130.1 
									519.5,122.2 512.8,117.4 521.1,117.4 								"/>
							</g>
						</g>
						<g>
							<g>
								<polygon class="st4" points="433,109.6 430.5,117.4 422.2,117.4 428.9,122.2 426.4,130.1 433,125.2 439.7,130.1 
									437.1,122.2 443.8,117.4 435.6,117.4 								"/>
							</g>
							<g>
								<polygon class="st4" points="403.2,109.6 400.7,117.4 392.4,117.4 399.1,122.2 396.5,130.1 403.2,125.2 409.8,130.1 
									407.3,122.2 414,117.4 405.7,117.4 								"/>
							</g>
						</g>
					</g>
				</g>
			</g>
			<g>
				<path class="st4" d="M328.9,258.2c-1,0-1.9-0.8-1.9-1.9v-7.9c0-1,0.8-1.9,1.9-1.9c1,0,1.9,0.8,1.9,1.9v7.9
					C330.8,257.3,330,258.2,328.9,258.2z M328.9,241.5c-1,0-1.9-0.8-1.9-1.9v-8.8c0-1,0.8-1.9,1.9-1.9c1,0,1.9,0.8,1.9,1.9v8.8
					C330.8,240.7,330,241.5,328.9,241.5z M328.9,223.9c-1,0-1.9-0.8-1.9-1.9v-8.8c0-1,0.8-1.9,1.9-1.9c1,0,1.9,0.8,1.9,1.9v8.8
					C330.8,223.1,330,223.9,328.9,223.9z M328.9,206.3c-1,0-1.9-0.8-1.9-1.9v-8.8c0-1,0.8-1.9,1.9-1.9c1,0,1.9,0.8,1.9,1.9v8.8
					C330.8,205.5,330,206.3,328.9,206.3z M328.9,188.8c-1,0-1.9-0.8-1.9-1.9v-8.8c0-1,0.8-1.9,1.9-1.9c1,0,1.9,0.8,1.9,1.9v8.8
					C330.8,187.9,330,188.8,328.9,188.8z M328.9,171.2c-1,0-1.9-0.8-1.9-1.9v-8.8c0-1,0.8-1.9,1.9-1.9c1,0,1.9,0.8,1.9,1.9v8.8
					C330.8,170.3,330,171.2,328.9,171.2z M328.9,153.6c-1,0-1.9-0.8-1.9-1.9v-8.8c0-1,0.8-1.9,1.9-1.9c1,0,1.9,0.8,1.9,1.9v8.8
					C330.8,152.8,330,153.6,328.9,153.6z M328.9,136c-1,0-1.9-0.8-1.9-1.9v-8.8c0-1,0.8-1.9,1.9-1.9c1,0,1.9,0.8,1.9,1.9v8.8
					C330.8,135.2,330,136,328.9,136z M328.9,118.5c-1,0-1.9-0.8-1.9-1.9v-8.8c0-1,0.8-1.9,1.9-1.9c1,0,1.9,0.8,1.9,1.9v8.8
					C330.8,117.6,330,118.5,328.9,118.5z M328.9,100.9c-1,0-1.9-0.8-1.9-1.9v-8.8c0-1,0.8-1.9,1.9-1.9c1,0,1.9,0.8,1.9,1.9V99
					C330.8,100,330,100.9,328.9,100.9z"/>
			</g>
			<g>
				<rect x="282.5" y="90.2" class="st14" width="32.6" height="166.1"/>
				<g>
					
						<rect x="292.8" y="101.6" transform="matrix(-1.836970e-016 1 -1 -1.836970e-016 409.6815 -187.9102)" class="st4" width="12.1" height="18.5"/>
					
						<rect x="292.8" y="135.4" transform="matrix(-1.836970e-016 1 -1 -1.836970e-016 443.4969 -154.0947)" class="st4" width="12.1" height="18.5"/>
					
						<rect x="290.7" y="158" transform="matrix(-1.836970e-016 1 -1 -1.836970e-016 466.0657 -131.526)" class="st4" width="16.2" height="18.5"/>
					
						<rect x="292.7" y="187.1" transform="matrix(-1.836970e-016 1 -1 -1.836970e-016 495.2013 -102.3903)" class="st4" width="12.2" height="18.5"/>
					
						<rect x="292.7" y="220.4" transform="matrix(-1.836970e-016 1 -1 -1.836970e-016 528.4128 -69.1788)" class="st4" width="12.2" height="18.5"/>
					
						<rect x="296.3" y="112.3" transform="matrix(-1.836970e-016 1 -1 -1.836970e-016 420.3242 -177.2673)" class="st4" width="5" height="18.5"/>
					
						<rect x="296.3" y="118.9" transform="matrix(-1.836970e-016 1 -1 -1.836970e-016 426.9666 -170.625)" class="st4" width="5" height="18.5"/>
					
						<rect x="296.3" y="125.3" transform="matrix(-1.836970e-016 1 -1 -1.836970e-016 433.307 -164.2847)" class="st4" width="5" height="18.5"/>
					
						<rect x="296.3" y="197.1" transform="matrix(-1.836970e-016 1 -1 -1.836970e-016 505.1647 -92.4269)" class="st4" width="5" height="18.5"/>
					
						<rect x="296.3" y="203.8" transform="matrix(-1.836970e-016 1 -1 -1.836970e-016 511.8071 -85.7846)" class="st4" width="5" height="18.5"/>
					
						<rect x="296.3" y="210.1" transform="matrix(-1.836970e-016 1 -1 -1.836970e-016 518.1475 -79.4442)" class="st4" width="5" height="18.5"/>
					
						<rect x="296.3" y="170.2" transform="matrix(-1.836970e-016 1 -1 -1.836970e-016 478.2935 -119.2981)" class="st4" width="5" height="18.5"/>
					
						<rect x="296.3" y="176.9" transform="matrix(-1.836970e-016 1 -1 -1.836970e-016 484.9359 -112.6557)" class="st4" width="5" height="18.5"/>
					
						<rect x="296.3" y="145.8" transform="matrix(-1.836970e-016 1 -1 -1.836970e-016 453.8378 -143.7538)" class="st4" width="5" height="18.5"/>
					
						<rect x="296.3" y="230.6" transform="matrix(-1.836970e-016 1 -1 -1.836970e-016 538.6782 -58.9134)" class="st4" width="5" height="18.5"/>
				</g>
			</g>
			<path class="st4" d="M622.4,129.8v-17.9l-0.7-0.6c-7.6-5.9-14.1-13.5-18.6-22l-0.5-1H254l-0.5,1c-4.5,8.5-10.9,16.1-18.6,22
				l-0.7,0.6v17.9l0.6,0.6c11.7,11.4,18.2,26.6,18.2,42.9s-6.5,31.5-18.2,42.9l-0.6,0.6v17.9l0.7,0.6c7.6,5.9,14.1,13.5,18.6,22
				l0.5,1h348.6l0.5-1c4.5-8.5,10.9-16.1,18.6-22l0.7-0.6v-17.9l-0.6-0.6c-11.7-11.4-18.2-26.6-18.2-42.9s6.5-31.5,18.2-42.9
				L622.4,129.8z M618.6,128.3c-12.1,12-18.8,28-18.8,45c0,17,6.7,33,18.8,45v14.5c-7.4,5.9-13.7,13.4-18.3,21.6H256.2
				c-4.6-8.3-10.9-15.7-18.3-21.6v-14.5c12.1-12,18.8-28,18.8-45c0-17-6.7-33-18.8-45v-14.5c7.4-5.9,13.7-13.4,18.3-21.6h344.1
				c4.6,8.3,10.9,15.7,18.3,21.6V128.3z"/>
		</g>
	</g>
	<g>
		<path class="st2" d="M658.6,375.7v-3.9H452.5c0,16.1-12.1,29.3-27.7,31.2c1.9,1.2,3.2,3.4,3.2,5.8c0,3.8-3.1,6.9-6.9,6.9
			c-3.8,0-6.9-3.1-6.9-6.9c0-2.4,1.3-4.6,3.2-5.8c-15.6-1.8-27.7-15.1-27.7-31.2H183.7v3.9c4.1,1.4,7,5.3,7,9.8c0,4.5-2.9,8.4-7,9.8
			v2.8c4.1,1.4,7,5.3,7,9.8c0,4.5-2.9,8.4-7,9.8v3.1c4.2,1.3,7.3,5.3,7.3,10s-3.1,8.6-7.3,10v2.5c4.2,1.3,7.3,5.3,7.3,10
			s-3.1,8.6-7.3,10v2.8c4.2,1.3,7.3,5.3,7.3,10s-3.1,8.6-7.3,10v2.5c4.2,1.3,7.3,5.3,7.3,10s-3.1,8.6-7.3,10v3
			c4.2,1.3,7.3,5.3,7.3,10c0,4.7-3.1,8.6-7.3,10v2.5c4.2,1.3,7.3,5.3,7.3,10c0,4.7-3.1,8.6-7.3,10v3c4.2,1.3,7.3,5.3,7.3,10
			c0,4.7-3.1,8.6-7.3,10v2.5c4.2,1.3,7.3,5.3,7.3,10c0,4.7-3.1,8.6-7.3,10v3.8h206.1c0-15.8,11.6-28.8,26.8-31
			c-1.4-1.3-2.3-3.1-2.3-5.1c0-3.8,3.1-6.9,6.9-6.9c3.8,0,6.9,3.1,6.9,6.9c0,2-0.9,3.9-2.3,5.1c15.2,2.2,26.8,15.3,26.8,31h206.1
			v-3.8c-4.2-1.3-7.3-5.3-7.3-10c0-4.7,3.1-8.6,7.3-10V577c-4.2-1.3-7.3-5.3-7.3-10c0-4.7,3.1-8.6,7.3-10v-3
			c-4.2-1.3-7.3-5.3-7.3-10c0-4.7,3.1-8.6,7.3-10v-2.5c-4.2-1.3-7.3-5.3-7.3-10c0-4.7,3.1-8.6,7.3-10v-3c-4.2-1.3-7.3-5.3-7.3-10
			s3.1-8.6,7.3-10v-2.5c-4.2-1.3-7.3-5.3-7.3-10s3.1-8.6,7.3-10v-2.8c-4.2-1.3-7.3-5.3-7.3-10s3.1-8.6,7.3-10V441
			c-4.2-1.3-7.3-5.3-7.3-10s3.1-8.6,7.3-10v-3.1c-4.1-1.4-7-5.3-7-9.8c0-4.5,2.9-8.4,7-9.8v-2.8c-4.1-1.4-7-5.3-7-9.8
			C651.6,381,654.5,377.2,658.6,375.7z M421.1,551.3c-3.8,0-6.9-3.1-6.9-6.9c0-3.8,3.1-6.9,6.9-6.9c3.8,0,6.9,3.1,6.9,6.9
			C428,548.2,424.9,551.3,421.1,551.3z M421.1,528.7c-3.8,0-6.9-3.1-6.9-6.9c0-3.8,3.1-6.9,6.9-6.9c3.8,0,6.9,3.1,6.9,6.9
			C428,525.6,424.9,528.7,421.1,528.7z M421.1,506.1c-3.8,0-6.9-3.1-6.9-6.9c0-3.8,3.1-6.9,6.9-6.9c3.8,0,6.9,3.1,6.9,6.9
			C428,503,424.9,506.1,421.1,506.1z M421.1,483.5c-3.8,0-6.9-3.1-6.9-6.9c0-3.8,3.1-6.9,6.9-6.9c3.8,0,6.9,3.1,6.9,6.9
			C428,480.4,424.9,483.5,421.1,483.5z M421.1,460.9c-3.8,0-6.9-3.1-6.9-6.9c0-3.8,3.1-6.9,6.9-6.9c3.8,0,6.9,3.1,6.9,6.9
			C428,457.8,424.9,460.9,421.1,460.9z M421.1,438.3c-3.8,0-6.9-3.1-6.9-6.9c0-3.8,3.1-6.9,6.9-6.9c3.8,0,6.9,3.1,6.9,6.9
			C428,435.2,424.9,438.3,421.1,438.3z"/>
		<g>
			<path class="st19" d="M658.6,361.9V358H452.5c0,16.1-12.1,29.3-27.7,31.2c1.9,1.2,3.2,3.4,3.2,5.8c0,3.8-3.1,6.9-6.9,6.9
				c-3.8,0-6.9-3.1-6.9-6.9c0-2.4,1.3-4.6,3.2-5.8c-15.6-1.8-27.7-15.1-27.7-31.2H183.7v3.9c4.1,1.4,7,5.3,7,9.8
				c0,4.5-2.9,8.4-7,9.8v2.8c4.1,1.4,7,5.3,7,9.8c0,4.5-2.9,8.4-7,9.8v3.1c4.2,1.3,7.3,5.3,7.3,10s-3.1,8.6-7.3,10v2.5
				c4.2,1.3,7.3,5.3,7.3,10s-3.1,8.6-7.3,10v2.8c4.2,1.3,7.3,5.3,7.3,10s-3.1,8.6-7.3,10v2.5c4.2,1.3,7.3,5.3,7.3,10
				s-3.1,8.6-7.3,10v3c4.2,1.3,7.3,5.3,7.3,10s-3.1,8.6-7.3,10v2.5c4.2,1.3,7.3,5.3,7.3,10c0,4.7-3.1,8.6-7.3,10v3
				c4.2,1.3,7.3,5.3,7.3,10c0,4.7-3.1,8.6-7.3,10v2.5c4.2,1.3,7.3,5.3,7.3,10c0,4.7-3.1,8.6-7.3,10v3.8h206.1
				c0-15.8,11.6-28.8,26.8-31c-1.4-1.3-2.3-3.1-2.3-5.1c0-3.8,3.1-6.9,6.9-6.9c3.8,0,6.9,3.1,6.9,6.9c0,2-0.9,3.9-2.3,5.1
				c15.2,2.2,26.8,15.3,26.8,31h206.1v-3.8c-4.2-1.3-7.3-5.3-7.3-10c0-4.7,3.1-8.6,7.3-10v-2.5c-4.2-1.3-7.3-5.3-7.3-10
				c0-4.7,3.1-8.6,7.3-10v-3c-4.2-1.3-7.3-5.3-7.3-10c0-4.7,3.1-8.6,7.3-10v-2.5c-4.2-1.3-7.3-5.3-7.3-10s3.1-8.6,7.3-10v-3
				c-4.2-1.3-7.3-5.3-7.3-10s3.1-8.6,7.3-10v-2.5c-4.2-1.3-7.3-5.3-7.3-10s3.1-8.6,7.3-10v-2.8c-4.2-1.3-7.3-5.3-7.3-10
				s3.1-8.6,7.3-10v-2.5c-4.2-1.3-7.3-5.3-7.3-10s3.1-8.6,7.3-10v-3.1c-4.1-1.4-7-5.3-7-9.8c0-4.5,2.9-8.4,7-9.8v-2.8
				c-4.1-1.4-7-5.3-7-9.8C651.6,367.2,654.5,363.3,658.6,361.9z M421.1,537.5c-3.8,0-6.9-3.1-6.9-6.9c0-3.8,3.1-6.9,6.9-6.9
				c3.8,0,6.9,3.1,6.9,6.9C428,534.4,424.9,537.5,421.1,537.5z M421.1,514.9c-3.8,0-6.9-3.1-6.9-6.9c0-3.8,3.1-6.9,6.9-6.9
				c3.8,0,6.9,3.1,6.9,6.9C428,511.8,424.9,514.9,421.1,514.9z M421.1,492.3c-3.8,0-6.9-3.1-6.9-6.9c0-3.8,3.1-6.9,6.9-6.9
				c3.8,0,6.9,3.1,6.9,6.9C428,489.2,424.9,492.3,421.1,492.3z M421.1,469.7c-3.8,0-6.9-3.1-6.9-6.9c0-3.8,3.1-6.9,6.9-6.9
				c3.8,0,6.9,3.1,6.9,6.9C428,466.6,424.9,469.7,421.1,469.7z M421.1,447.1c-3.8,0-6.9-3.1-6.9-6.9c0-3.8,3.1-6.9,6.9-6.9
				c3.8,0,6.9,3.1,6.9,6.9C428,444,424.9,447.1,421.1,447.1z M421.1,424.5c-3.8,0-6.9-3.1-6.9-6.9c0-3.8,3.1-6.9,6.9-6.9
				c3.8,0,6.9,3.1,6.9,6.9C428,421.4,424.9,424.5,421.1,424.5z"/>
			<rect x="222.1" y="394.6" class="st20" width="149" height="158.2"/>
			<rect x="469.4" y="394.6" class="st4" width="149" height="158.2"/>
			<g>
				<g>
					<g>
						<text transform="matrix(1 0 0 1 479.0491 440.6054)" class="st20 st5 st30">SPECIAL</text>
						<text transform="matrix(1 0 0 1 479.0481 463.6904)" class="st20 st5 st31">DISCOUNT</text>
					</g>
				</g>
				<g>
					<text transform="matrix(1 0 0 1 480.8479 488.0458)" class="st20 st7 st32">LIMITED TIME OFFER</text>
				</g>
				<g>
					<g>
						
							<rect x="595.3" y="512.6" transform="matrix(-1 -1.224647e-016 1.224647e-016 -1 1201.5653 1046.1786)" class="st20" width="11" height="21"/>
						
							<rect x="564.4" y="512.6" transform="matrix(-1 -1.224647e-016 1.224647e-016 -1 1139.877 1046.1786)" class="st20" width="11" height="21"/>
						
							<rect x="542" y="512.6" transform="matrix(-1 -1.224647e-016 1.224647e-016 -1 1098.7054 1046.1786)" class="st20" width="14.7" height="21"/>
						
							<rect x="517.2" y="512.6" transform="matrix(-1 -1.224647e-016 1.224647e-016 -1 1045.5543 1046.1786)" class="st20" width="11.2" height="21"/>
						
							<rect x="486.9" y="512.6" transform="matrix(-1 -1.224647e-016 1.224647e-016 -1 984.9675 1046.1786)" class="st20" width="11.2" height="21"/>
						
							<rect x="588.8" y="512.6" transform="matrix(-1 -1.224647e-016 1.224647e-016 -1 1182.15 1046.1786)" class="st20" width="4.5" height="21"/>
						
							<rect x="582.7" y="512.6" transform="matrix(-1 -1.224647e-016 1.224647e-016 -1 1170.0326 1046.1786)" class="st20" width="4.5" height="21"/>
						
							<rect x="577" y="512.6" transform="matrix(-1 -1.224647e-016 1.224647e-016 -1 1158.4661 1046.1786)" class="st20" width="4.5" height="21"/>
						
							<rect x="511.4" y="512.6" transform="matrix(-1 -1.224647e-016 1.224647e-016 -1 1027.3783 1046.1786)" class="st20" width="4.5" height="21"/>
						
							<rect x="505.4" y="512.6" transform="matrix(-1 -1.224647e-016 1.224647e-016 -1 1015.2609 1046.1786)" class="st20" width="4.5" height="21"/>
						
							<rect x="499.6" y="512.6" transform="matrix(-1 -1.224647e-016 1.224647e-016 -1 1003.6943 1046.1786)" class="st20" width="4.5" height="21"/>
						
							<rect x="535.9" y="512.6" transform="matrix(-1 -1.224647e-016 1.224647e-016 -1 1076.3984 1046.1786)" class="st20" width="4.5" height="21"/>
						
							<rect x="529.9" y="512.6" transform="matrix(-1 -1.224647e-016 1.224647e-016 -1 1064.2811 1046.1786)" class="st20" width="4.5" height="21"/>
						
							<rect x="558.2" y="512.6" transform="matrix(-1 -1.224647e-016 1.224647e-016 -1 1121.0125 1046.1786)" class="st20" width="4.5" height="21"/>
						
							<rect x="480.8" y="512.6" transform="matrix(-1 -1.224647e-016 1.224647e-016 -1 966.2407 1046.1786)" class="st20" width="4.5" height="21"/>
					</g>
				</g>
			</g>
			<g>
				<g>
					<g>
						<g>
							<text transform="matrix(1 0 0 1 240.2742 459.4931)" class="st4 st5 st33">UP TO</text>
						</g>
						<g>
							<g>
								<g>
									<text transform="matrix(1 0 0 1 237.9998 516.5986)" class="st4 st5 st34">70</text>
								</g>
								<g>
									<text transform="matrix(1 0 0 1 313.5555 516.5986)" class="st4 st5 st35">OFF</text>
								</g>
								<g>
									<text transform="matrix(1 0 0 1 313.5564 499.1738)" class="st4 st5 st36">%</text>
								</g>
							</g>
						</g>
					</g>
				</g>
				<g>
					<polygon class="st4" points="296.6,409.9 298.3,415.1 303.9,415.1 299.4,418.4 301.1,423.7 296.6,420.4 292.1,423.7 
						293.8,418.4 289.3,415.1 294.9,415.1 					"/>
					<g>
						<polygon class="st4" points="320.5,409.9 322.2,415.1 327.7,415.1 323.2,418.4 325,423.7 320.5,420.4 316,423.7 317.7,418.4 
							313.2,415.1 318.8,415.1 						"/>
						<polygon class="st4" points="343,409.9 344.8,415.1 350.3,415.1 345.8,418.4 347.5,423.7 343,420.4 338.5,423.7 340.3,418.4 
							335.8,415.1 341.3,415.1 						"/>
					</g>
					<g>
						<polygon class="st4" points="272.7,409.9 271,415.1 265.4,415.1 269.9,418.4 268.2,423.7 272.7,420.4 277.2,423.7 
							275.5,418.4 280,415.1 274.4,415.1 						"/>
						<polygon class="st4" points="250.1,409.9 248.4,415.1 242.9,415.1 247.4,418.4 245.7,423.7 250.1,420.4 254.6,423.7 
							252.9,418.4 257.4,415.1 251.9,415.1 						"/>
					</g>
				</g>
				<g>
					<polygon class="st4" points="296.6,523.1 298.3,528.4 303.9,528.4 299.4,531.6 301.1,536.9 296.6,533.6 292.1,536.9 
						293.8,531.6 289.3,528.4 294.9,528.4 					"/>
					<g>
						<polygon class="st4" points="320.5,523.1 322.2,528.4 327.7,528.4 323.2,531.6 325,536.9 320.5,533.6 316,536.9 317.7,531.6 
							313.2,528.4 318.8,528.4 						"/>
						<polygon class="st4" points="343,523.1 344.8,528.4 350.3,528.4 345.8,531.6 347.5,536.9 343,533.6 338.5,536.9 340.3,531.6 
							335.8,528.4 341.3,528.4 						"/>
					</g>
					<g>
						<polygon class="st4" points="272.7,523.1 271,528.4 265.4,528.4 269.9,531.6 268.2,536.9 272.7,533.6 277.2,536.9 
							275.5,531.6 280,528.4 274.4,528.4 						"/>
						<polygon class="st4" points="250.1,523.1 248.4,528.4 242.9,528.4 247.4,531.6 245.7,536.9 250.1,533.6 254.6,536.9 
							252.9,531.6 257.4,528.4 251.9,528.4 						"/>
					</g>
				</g>
			</g>
		</g>
	</g>
</g>
</svg>
